{"title":"Brief Encounters 2016 S01","uid":15534200,"size":3147649392,"categoryP":"video","categoryS":"tv_shows","magnet":"?xt=urn:btih:17b96e7a5e5cdfeb6783a0f6c6e857916d04e8b0&amp;dn=Brief+Encounters+2016+S01&amp;tr=udp%3A%2F%2Ftracker.leechers-paradise.org%3A6969&amp;tr=udp%3A%2F%2Fzer0day.ch%3A1337&amp;tr=udp%3A%2F%2Fopen.demonii.com%3A1337&amp;tr=udp%3A%2F%2Ftracker.coppersurfer.tk%3A6969&amp;tr=udp%3A%2F%2Fexodus.desync.com%3A6969","seeders":7,"leechers":2,"uploader":"RedBaron58","files":6,"time":1470865285,"description":"Brief Encounters (2016) S01 x264 mp4\r\n \nhttp://www.imdb.com/title/tt5256926/\r\n\r\nThank you for your kind comments and feedback on my other torrents, your feedback is welcome.\r\n\r\n\r\nAbout the series:\r\nIn the early 1980s the lives of four ordinary women, their husbands, mothers, families and \r\ncommunity are turned around when they become Ann Summers party plan saleswomen.\r\n\r\nDrama set in Sheffield in 1982, starring Sophie Rundle, Penelope Wilton, Angela Griffin \r\nand Sharon Rooney.\r\n\r\n\r\nI hope you enjoy.\r\n\r\n\r\nTechnical:\r\n\r\nAll episodes encoded to same settings\r\n\r\nGeneral\r\nComplete name                            : I:Brief Encounter (2016) S01E01 x264 RB58.mp4\r\nFormat                                   : MPEG-4\r\nFormat profile                           : Base Media\r\nCodec ID                                 : isom\r\nFile size                                : 503 MiB\r\nDuration                                 : 46mn 5s\r\nOverall bit rate                         : 1 527 Kbps\r\nWriting application                      : Lavf54.63.104\r\n\r\nVideo\r\nID                                       : 1\r\nFormat                                   : AVC\r\nFormat/Info                              : Advanced Video Codec\r\nFormat profile                           :   \r\nFormat settings, CABAC                   : Yes\r\nFormat settings, ReFrames                : 4 frames\r\nCodec ID                                 : avc1\r\nCodec ID/Info                            : Advanced Video Coding\r\nDuration                                 : 46mn 5s\r\nBit rate                                 : 1 400 Kbps\r\nWidth                                    : 832 pixels\r\nHeight                                   : 468 pixels\r\nDisplay aspect ratio                     : 16:9\r\nFrame rate mode                          : Constant\r\nFrame rate                               : 25.000 fps\r\nColor space                              : YUV\r\nChroma subsampling                       : 4:2:0\r\nBit depth                                : 8 bits\r\nScan type                                : Progressive\r\nBits/(Pixel*Frame)                       : 0.144\r\nStream size                              : 461 MiB (92%)\r\nWriting library                          : x264 core 123 r2189 35cf912\r\nEncoding settings                        : cabac=1 / ref=3 / deblock=1:0:0\r\n\r\nAudio\r\nID                                       : 2\r\nFormat                                   : AAC\r\nFormat/Info                              : Advanced Audio Codec\r\nFormat profile                           : LC\r\nCodec ID                                 : 40\r\nDuration                                 : 46mn 4s\r\nBit rate mode                            : Constant\r\nBit rate                                 : 118 Kbps\r\nChannel(s)                               : 2 channels\r\nChannel positions                        : Front: L R\r\nSampling rate                            : 48.0 KHz\r\nCompression mode                         : Lossy\r\nStream size                              : 39.0 MiB (8%)","torrent":{"xt":"urn:btih:17b96e7a5e5cdfeb6783a0f6c6e857916d04e8b0","amp;dn":"Brief+Encounters+2016+S01","amp;tr":["udp%3A%2F%2Ftracker.leechers-paradise.org%3A6969","udp%3A%2F%2Fzer0day.ch%3A1337","udp%3A%2F%2Fopen.demonii.com%3A1337","udp%3A%2F%2Ftracker.coppersurfer.tk%3A6969","udp%3A%2F%2Fexodus.desync.com%3A6969"],"infoHash":"17b96e7a5e5cdfeb6783a0f6c6e857916d04e8b0","infoHashBuffer":{"type":"Buffer","data":[23,185,110,122,94,92,223,235,103,131,160,246,198,232,87,145,109,4,232,176]},"announce":[],"urlList":[]}}